<svg xmlns="http://www.w3.org/2000/svg" viewBox="0 0 800 600" width="800" height="600" role="img">
<defs><linearGradient id="sky" x1="0" y1="0" x2="0" y2="1"><stop offset="0" stop-color="#cfe4f5"/><stop offset="1" stop-color="#f8fbfd"/></linearGradient><linearGradient id="train" x1="0" y1="0" x2="0" y2="1"><stop offset="0" stop-color="#f0f4f7"/><stop offset="1" stop-color="#c9d5de"/></linearGradient></defs>
<rect width="800" height="600" fill="url(#sky)"/><g transform="translate(140 104) scale(0.85)" fill="#ffffff" opacity="0.55">
    <ellipse cx="0" cy="0" rx="46" ry="26"/><ellipse cx="38" cy="8" rx="34" ry="20"/><ellipse cx="-36" cy="10" rx="30" ry="18"/>
  </g>
    <g opacity="0.4" fill="#8aa6bf">
      <rect x="20" y="180" width="110" height="200"/><rect x="150" y="220" width="80" height="160"/>
      <rect x="600" y="200" width="100" height="180"/><rect x="720" y="240" width="70" height="140"/>
    </g>
    <rect x="0" y="380" width="800" height="220" fill="#e6dfd3"/>
    <rect x="0" y="470" width="800" height="20" fill="#b9b2a4"/>
    <g>
      <rect x="0" y="502" width="800" height="10" fill="#8d9aa8"/>
      <rect x="0" y="540" width="800" height="10" fill="#8d9aa8"/>
      <rect x="0" y="496" width="34" height="60" rx="4" fill="#9c8f7c"/><rect x="60" y="496" width="34" height="60" rx="4" fill="#9c8f7c"/><rect x="120" y="496" width="34" height="60" rx="4" fill="#9c8f7c"/><rect x="180" y="496" width="34" height="60" rx="4" fill="#9c8f7c"/><rect x="240" y="496" width="34" height="60" rx="4" fill="#9c8f7c"/><rect x="300" y="496" width="34" height="60" rx="4" fill="#9c8f7c"/><rect x="360" y="496" width="34" height="60" rx="4" fill="#9c8f7c"/><rect x="420" y="496" width="34" height="60" rx="4" fill="#9c8f7c"/><rect x="480" y="496" width="34" height="60" rx="4" fill="#9c8f7c"/><rect x="540" y="496" width="34" height="60" rx="4" fill="#9c8f7c"/><rect x="600" y="496" width="34" height="60" rx="4" fill="#9c8f7c"/><rect x="660" y="496" width="34" height="60" rx="4" fill="#9c8f7c"/><rect x="720" y="496" width="34" height="60" rx="4" fill="#9c8f7c"/><rect x="780" y="496" width="34" height="60" rx="4" fill="#9c8f7c"/>
    </g>
    <g>
      <rect x="120" y="300" width="470" height="170" rx="26" fill="url(#train)" stroke="#aebbc6" stroke-width="5"/>
      <rect x="120" y="360" width="470" height="18" fill="#d9734f"/>
      <rect x="150" y="316" width="80" height="60" rx="8" fill="#bcd9ea" stroke="#ffffff" stroke-width="5"/><rect x="260" y="316" width="80" height="60" rx="8" fill="#bcd9ea" stroke="#ffffff" stroke-width="5"/><rect x="370" y="316" width="80" height="60" rx="8" fill="#bcd9ea" stroke="#ffffff" stroke-width="5"/><rect x="480" y="316" width="80" height="60" rx="8" fill="#bcd9ea" stroke="#ffffff" stroke-width="5"/>
      <rect x="560" y="330" width="34" height="90" rx="10" fill="#bcd9ea"/>
      <circle cx="200" cy="480" r="20" fill="#54626f"/><circle cx="300" cy="480" r="20" fill="#54626f"/>
      <circle cx="430" cy="480" r="20" fill="#54626f"/><circle cx="520" cy="480" r="20" fill="#54626f"/>
    </g>
    <g>
      <rect x="640" y="250" width="150" height="16" rx="8" fill="#5c6f85"/>
      <rect x="706" y="266" width="14" height="204" fill="#8d9aa8"/>
      <rect x="628" y="240" width="174" height="14" rx="7" fill="#42505e"/>
      <rect x="648" y="290" width="130" height="44" rx="8" fill="#2f3c4a"/>
      <text x="713" y="320" font-family="Verdana, Geneva, sans-serif" font-size="22" fill="#8ed3a4" text-anchor="middle">5 min</text>
    </g>
    <g fill="#46a06c"><circle cx="42" cy="470" r="21"/><circle cx="78" cy="470" r="19.5"/><circle cx="60" cy="461" r="30"/></g><g transform="translate(660 470) scale(0.7)">
    <path d="M-26 0 L26 0 L20 44 L-20 44 Z" fill="#d9734f"/>
    <rect x="-30" y="-8" width="60" height="12" rx="4" fill="#e88a66"/>
    <g fill="#46a06c"><circle cx="-18" cy="-26" r="21"/><circle cx="18" cy="-26" r="19.5"/><circle cx="0" cy="-35" r="30"/></g>
    <circle cx="-22" cy="-44" r="14" fill="#8ed3a4"/>
    <circle cx="20" cy="-48" r="12" fill="#2f7d54"/>
  </g>
    <g transform="translate(626 400)">
      <circle cx="0" cy="-40" r="16" fill="#3f6fa8"/>
      <rect x="-14" y="-22" width="28" height="46" rx="10" fill="#4f7fb8"/>
      <rect x="-12" y="24" width="10" height="38" rx="5" fill="#33414f"/><rect x="2" y="24" width="10" height="38" rx="5" fill="#33414f"/>
    </g>
</svg>
