<svg xmlns="http://www.w3.org/2000/svg" viewBox="0 0 800 600" width="800" height="600" role="img">
<defs><linearGradient id="sky" x1="0" y1="0" x2="0" y2="1"><stop offset="0" stop-color="#bfe4ff"/><stop offset="1" stop-color="#fdf0d9"/></linearGradient><linearGradient id="sea" x1="0" y1="0" x2="0" y2="1"><stop offset="0" stop-color="#5cc8e0"/><stop offset="1" stop-color="#1f8fbc"/></linearGradient><linearGradient id="sand" x1="0" y1="0" x2="0" y2="1"><stop offset="0" stop-color="#f6e7cc"/><stop offset="1" stop-color="#e6d2ae"/></linearGradient><linearGradient id="t1" x1="0" y1="0" x2="0" y2="1"><stop offset="0" stop-color="#cfe0ec"/><stop offset="1" stop-color="#8fb2c8"/></linearGradient><linearGradient id="t2" x1="0" y1="0" x2="0" y2="1"><stop offset="0" stop-color="#e2ecf3"/><stop offset="1" stop-color="#a9c4d6"/></linearGradient></defs>
<rect width="800" height="600" fill="url(#sky)"/><circle cx="130" cy="118" r="50" fill="#ffd9a0" opacity="0.85"/>
    <g>
    <rect x="96" y="130" width="96" height="250" rx="8" fill="url(#t1)"/>
    <g><rect x="102" y="148" width="16.5" height="21.5" rx="3" fill="#cbe6f5"/><rect x="124.5" y="148" width="16.5" height="21.5" rx="3" fill="rgba(255,255,255,0.4)"/><rect x="147" y="148" width="16.5" height="21.5" rx="3" fill="rgba(255,255,255,0.4)"/><rect x="169.5" y="148" width="16.5" height="21.5" rx="3" fill="rgba(255,255,255,0.4)"/><rect x="102" y="175.5" width="16.5" height="21.5" rx="3" fill="rgba(255,255,255,0.4)"/><rect x="124.5" y="175.5" width="16.5" height="21.5" rx="3" fill="#cbe6f5"/><rect x="147" y="175.5" width="16.5" height="21.5" rx="3" fill="rgba(255,255,255,0.4)"/><rect x="169.5" y="175.5" width="16.5" height="21.5" rx="3" fill="rgba(255,255,255,0.4)"/><rect x="102" y="203" width="16.5" height="21.5" rx="3" fill="rgba(255,255,255,0.4)"/><rect x="124.5" y="203" width="16.5" height="21.5" rx="3" fill="rgba(255,255,255,0.4)"/><rect x="147" y="203" width="16.5" height="21.5" rx="3" fill="#cbe6f5"/><rect x="169.5" y="203" width="16.5" height="21.5" rx="3" fill="rgba(255,255,255,0.4)"/><rect x="102" y="230.5" width="16.5" height="21.5" rx="3" fill="rgba(255,255,255,0.4)"/><rect x="124.5" y="230.5" width="16.5" height="21.5" rx="3" fill="rgba(255,255,255,0.4)"/><rect x="147" y="230.5" width="16.5" height="21.5" rx="3" fill="rgba(255,255,255,0.4)"/><rect x="169.5" y="230.5" width="16.5" height="21.5" rx="3" fill="#cbe6f5"/><rect x="102" y="258" width="16.5" height="21.5" rx="3" fill="rgba(255,255,255,0.4)"/><rect x="124.5" y="258" width="16.5" height="21.5" rx="3" fill="rgba(255,255,255,0.4)"/><rect x="147" y="258" width="16.5" height="21.5" rx="3" fill="rgba(255,255,255,0.4)"/><rect x="169.5" y="258" width="16.5" height="21.5" rx="3" fill="rgba(255,255,255,0.4)"/><rect x="102" y="285.5" width="16.5" height="21.5" rx="3" fill="#cbe6f5"/><rect x="124.5" y="285.5" width="16.5" height="21.5" rx="3" fill="rgba(255,255,255,0.4)"/><rect x="147" y="285.5" width="16.5" height="21.5" rx="3" fill="rgba(255,255,255,0.4)"/><rect x="169.5" y="285.5" width="16.5" height="21.5" rx="3" fill="rgba(255,255,255,0.4)"/><rect x="102" y="313" width="16.5" height="21.5" rx="3" fill="rgba(255,255,255,0.4)"/><rect x="124.5" y="313" width="16.5" height="21.5" rx="3" fill="#cbe6f5"/><rect x="147" y="313" width="16.5" height="21.5" rx="3" fill="rgba(255,255,255,0.4)"/><rect x="169.5" y="313" width="16.5" height="21.5" rx="3" fill="rgba(255,255,255,0.4)"/><rect x="102" y="340.5" width="16.5" height="21.5" rx="3" fill="rgba(255,255,255,0.4)"/><rect x="124.5" y="340.5" width="16.5" height="21.5" rx="3" fill="rgba(255,255,255,0.4)"/><rect x="147" y="340.5" width="16.5" height="21.5" rx="3" fill="#cbe6f5"/><rect x="169.5" y="340.5" width="16.5" height="21.5" rx="3" fill="rgba(255,255,255,0.4)"/></g>
    <rect x="90" y="122" width="108" height="12" rx="5" fill="#ffffff" opacity="0.6"/>
  </g><g>
    <rect x="206" y="190" width="78" height="190" rx="8" fill="url(#t2)"/>
    <g><rect x="212" y="208" width="18" height="20.666666666666668" rx="3" fill="#cbe6f5"/><rect x="236" y="208" width="18" height="20.666666666666668" rx="3" fill="rgba(255,255,255,0.4)"/><rect x="260" y="208" width="18" height="20.666666666666668" rx="3" fill="rgba(255,255,255,0.4)"/><rect x="212" y="234.66666666666666" width="18" height="20.666666666666668" rx="3" fill="rgba(255,255,255,0.4)"/><rect x="236" y="234.66666666666666" width="18" height="20.666666666666668" rx="3" fill="rgba(255,255,255,0.4)"/><rect x="260" y="234.66666666666666" width="18" height="20.666666666666668" rx="3" fill="#cbe6f5"/><rect x="212" y="261.3333333333333" width="18" height="20.666666666666668" rx="3" fill="rgba(255,255,255,0.4)"/><rect x="236" y="261.3333333333333" width="18" height="20.666666666666668" rx="3" fill="rgba(255,255,255,0.4)"/><rect x="260" y="261.3333333333333" width="18" height="20.666666666666668" rx="3" fill="rgba(255,255,255,0.4)"/><rect x="212" y="288" width="18" height="20.666666666666668" rx="3" fill="rgba(255,255,255,0.4)"/><rect x="236" y="288" width="18" height="20.666666666666668" rx="3" fill="#cbe6f5"/><rect x="260" y="288" width="18" height="20.666666666666668" rx="3" fill="rgba(255,255,255,0.4)"/><rect x="212" y="314.6666666666667" width="18" height="20.666666666666668" rx="3" fill="rgba(255,255,255,0.4)"/><rect x="236" y="314.6666666666667" width="18" height="20.666666666666668" rx="3" fill="rgba(255,255,255,0.4)"/><rect x="260" y="314.6666666666667" width="18" height="20.666666666666668" rx="3" fill="rgba(255,255,255,0.4)"/><rect x="212" y="341.33333333333337" width="18" height="20.666666666666668" rx="3" fill="#cbe6f5"/><rect x="236" y="341.33333333333337" width="18" height="20.666666666666668" rx="3" fill="rgba(255,255,255,0.4)"/><rect x="260" y="341.33333333333337" width="18" height="20.666666666666668" rx="3" fill="rgba(255,255,255,0.4)"/></g>
    <rect x="200" y="182" width="90" height="12" rx="5" fill="#ffffff" opacity="0.6"/>
  </g>
    <g>
    <rect x="300" y="90" width="108" height="290" rx="8" fill="url(#t2)"/>
    <g><rect x="306" y="108" width="19.5" height="22.88888888888889" rx="3" fill="#cbe6f5"/><rect x="331.5" y="108" width="19.5" height="22.88888888888889" rx="3" fill="rgba(255,255,255,0.4)"/><rect x="357" y="108" width="19.5" height="22.88888888888889" rx="3" fill="rgba(255,255,255,0.4)"/><rect x="382.5" y="108" width="19.5" height="22.88888888888889" rx="3" fill="rgba(255,255,255,0.4)"/><rect x="306" y="136.88888888888889" width="19.5" height="22.88888888888889" rx="3" fill="rgba(255,255,255,0.4)"/><rect x="331.5" y="136.88888888888889" width="19.5" height="22.88888888888889" rx="3" fill="#cbe6f5"/><rect x="357" y="136.88888888888889" width="19.5" height="22.88888888888889" rx="3" fill="rgba(255,255,255,0.4)"/><rect x="382.5" y="136.88888888888889" width="19.5" height="22.88888888888889" rx="3" fill="rgba(255,255,255,0.4)"/><rect x="306" y="165.77777777777777" width="19.5" height="22.88888888888889" rx="3" fill="rgba(255,255,255,0.4)"/><rect x="331.5" y="165.77777777777777" width="19.5" height="22.88888888888889" rx="3" fill="rgba(255,255,255,0.4)"/><rect x="357" y="165.77777777777777" width="19.5" height="22.88888888888889" rx="3" fill="#cbe6f5"/><rect x="382.5" y="165.77777777777777" width="19.5" height="22.88888888888889" rx="3" fill="rgba(255,255,255,0.4)"/><rect x="306" y="194.66666666666669" width="19.5" height="22.88888888888889" rx="3" fill="rgba(255,255,255,0.4)"/><rect x="331.5" y="194.66666666666669" width="19.5" height="22.88888888888889" rx="3" fill="rgba(255,255,255,0.4)"/><rect x="357" y="194.66666666666669" width="19.5" height="22.88888888888889" rx="3" fill="rgba(255,255,255,0.4)"/><rect x="382.5" y="194.66666666666669" width="19.5" height="22.88888888888889" rx="3" fill="#cbe6f5"/><rect x="306" y="223.55555555555554" width="19.5" height="22.88888888888889" rx="3" fill="rgba(255,255,255,0.4)"/><rect x="331.5" y="223.55555555555554" width="19.5" height="22.88888888888889" rx="3" fill="rgba(255,255,255,0.4)"/><rect x="357" y="223.55555555555554" width="19.5" height="22.88888888888889" rx="3" fill="rgba(255,255,255,0.4)"/><rect x="382.5" y="223.55555555555554" width="19.5" height="22.88888888888889" rx="3" fill="rgba(255,255,255,0.4)"/><rect x="306" y="252.44444444444446" width="19.5" height="22.88888888888889" rx="3" fill="#cbe6f5"/><rect x="331.5" y="252.44444444444446" width="19.5" height="22.88888888888889" rx="3" fill="rgba(255,255,255,0.4)"/><rect x="357" y="252.44444444444446" width="19.5" height="22.88888888888889" rx="3" fill="rgba(255,255,255,0.4)"/><rect x="382.5" y="252.44444444444446" width="19.5" height="22.88888888888889" rx="3" fill="rgba(255,255,255,0.4)"/><rect x="306" y="281.33333333333337" width="19.5" height="22.88888888888889" rx="3" fill="rgba(255,255,255,0.4)"/><rect x="331.5" y="281.33333333333337" width="19.5" height="22.88888888888889" rx="3" fill="#cbe6f5"/><rect x="357" y="281.33333333333337" width="19.5" height="22.88888888888889" rx="3" fill="rgba(255,255,255,0.4)"/><rect x="382.5" y="281.33333333333337" width="19.5" height="22.88888888888889" rx="3" fill="rgba(255,255,255,0.4)"/><rect x="306" y="310.22222222222223" width="19.5" height="22.88888888888889" rx="3" fill="rgba(255,255,255,0.4)"/><rect x="331.5" y="310.22222222222223" width="19.5" height="22.88888888888889" rx="3" fill="rgba(255,255,255,0.4)"/><rect x="357" y="310.22222222222223" width="19.5" height="22.88888888888889" rx="3" fill="#cbe6f5"/><rect x="382.5" y="310.22222222222223" width="19.5" height="22.88888888888889" rx="3" fill="rgba(255,255,255,0.4)"/><rect x="306" y="339.1111111111111" width="19.5" height="22.88888888888889" rx="3" fill="rgba(255,255,255,0.4)"/><rect x="331.5" y="339.1111111111111" width="19.5" height="22.88888888888889" rx="3" fill="rgba(255,255,255,0.4)"/><rect x="357" y="339.1111111111111" width="19.5" height="22.88888888888889" rx="3" fill="rgba(255,255,255,0.4)"/><rect x="382.5" y="339.1111111111111" width="19.5" height="22.88888888888889" rx="3" fill="#cbe6f5"/></g>
    <rect x="294" y="82" width="120" height="12" rx="5" fill="#ffffff" opacity="0.6"/>
  </g><g>
    <rect x="424" y="160" width="86" height="220" rx="8" fill="url(#t1)"/>
    <g><rect x="430" y="178" width="20.666666666666668" height="21.142857142857142" rx="3" fill="#cbe6f5"/><rect x="456.6666666666667" y="178" width="20.666666666666668" height="21.142857142857142" rx="3" fill="rgba(255,255,255,0.4)"/><rect x="483.3333333333333" y="178" width="20.666666666666668" height="21.142857142857142" rx="3" fill="rgba(255,255,255,0.4)"/><rect x="430" y="205.14285714285714" width="20.666666666666668" height="21.142857142857142" rx="3" fill="rgba(255,255,255,0.4)"/><rect x="456.6666666666667" y="205.14285714285714" width="20.666666666666668" height="21.142857142857142" rx="3" fill="rgba(255,255,255,0.4)"/><rect x="483.3333333333333" y="205.14285714285714" width="20.666666666666668" height="21.142857142857142" rx="3" fill="#cbe6f5"/><rect x="430" y="232.28571428571428" width="20.666666666666668" height="21.142857142857142" rx="3" fill="rgba(255,255,255,0.4)"/><rect x="456.6666666666667" y="232.28571428571428" width="20.666666666666668" height="21.142857142857142" rx="3" fill="rgba(255,255,255,0.4)"/><rect x="483.3333333333333" y="232.28571428571428" width="20.666666666666668" height="21.142857142857142" rx="3" fill="rgba(255,255,255,0.4)"/><rect x="430" y="259.42857142857144" width="20.666666666666668" height="21.142857142857142" rx="3" fill="rgba(255,255,255,0.4)"/><rect x="456.6666666666667" y="259.42857142857144" width="20.666666666666668" height="21.142857142857142" rx="3" fill="#cbe6f5"/><rect x="483.3333333333333" y="259.42857142857144" width="20.666666666666668" height="21.142857142857142" rx="3" fill="rgba(255,255,255,0.4)"/><rect x="430" y="286.57142857142856" width="20.666666666666668" height="21.142857142857142" rx="3" fill="rgba(255,255,255,0.4)"/><rect x="456.6666666666667" y="286.57142857142856" width="20.666666666666668" height="21.142857142857142" rx="3" fill="rgba(255,255,255,0.4)"/><rect x="483.3333333333333" y="286.57142857142856" width="20.666666666666668" height="21.142857142857142" rx="3" fill="rgba(255,255,255,0.4)"/><rect x="430" y="313.7142857142857" width="20.666666666666668" height="21.142857142857142" rx="3" fill="#cbe6f5"/><rect x="456.6666666666667" y="313.7142857142857" width="20.666666666666668" height="21.142857142857142" rx="3" fill="rgba(255,255,255,0.4)"/><rect x="483.3333333333333" y="313.7142857142857" width="20.666666666666668" height="21.142857142857142" rx="3" fill="rgba(255,255,255,0.4)"/><rect x="430" y="340.8571428571429" width="20.666666666666668" height="21.142857142857142" rx="3" fill="rgba(255,255,255,0.4)"/><rect x="456.6666666666667" y="340.8571428571429" width="20.666666666666668" height="21.142857142857142" rx="3" fill="rgba(255,255,255,0.4)"/><rect x="483.3333333333333" y="340.8571428571429" width="20.666666666666668" height="21.142857142857142" rx="3" fill="#cbe6f5"/></g>
    <rect x="418" y="152" width="98" height="12" rx="5" fill="#ffffff" opacity="0.6"/>
  </g>
    <g>
    <rect x="524" y="120" width="100" height="260" rx="8" fill="url(#t2)"/>
    <g><rect x="530" y="138" width="17.5" height="22.75" rx="3" fill="#cbe6f5"/><rect x="553.5" y="138" width="17.5" height="22.75" rx="3" fill="rgba(255,255,255,0.4)"/><rect x="577" y="138" width="17.5" height="22.75" rx="3" fill="rgba(255,255,255,0.4)"/><rect x="600.5" y="138" width="17.5" height="22.75" rx="3" fill="rgba(255,255,255,0.4)"/><rect x="530" y="166.75" width="17.5" height="22.75" rx="3" fill="rgba(255,255,255,0.4)"/><rect x="553.5" y="166.75" width="17.5" height="22.75" rx="3" fill="#cbe6f5"/><rect x="577" y="166.75" width="17.5" height="22.75" rx="3" fill="rgba(255,255,255,0.4)"/><rect x="600.5" y="166.75" width="17.5" height="22.75" rx="3" fill="rgba(255,255,255,0.4)"/><rect x="530" y="195.5" width="17.5" height="22.75" rx="3" fill="rgba(255,255,255,0.4)"/><rect x="553.5" y="195.5" width="17.5" height="22.75" rx="3" fill="rgba(255,255,255,0.4)"/><rect x="577" y="195.5" width="17.5" height="22.75" rx="3" fill="#cbe6f5"/><rect x="600.5" y="195.5" width="17.5" height="22.75" rx="3" fill="rgba(255,255,255,0.4)"/><rect x="530" y="224.25" width="17.5" height="22.75" rx="3" fill="rgba(255,255,255,0.4)"/><rect x="553.5" y="224.25" width="17.5" height="22.75" rx="3" fill="rgba(255,255,255,0.4)"/><rect x="577" y="224.25" width="17.5" height="22.75" rx="3" fill="rgba(255,255,255,0.4)"/><rect x="600.5" y="224.25" width="17.5" height="22.75" rx="3" fill="#cbe6f5"/><rect x="530" y="253" width="17.5" height="22.75" rx="3" fill="rgba(255,255,255,0.4)"/><rect x="553.5" y="253" width="17.5" height="22.75" rx="3" fill="rgba(255,255,255,0.4)"/><rect x="577" y="253" width="17.5" height="22.75" rx="3" fill="rgba(255,255,255,0.4)"/><rect x="600.5" y="253" width="17.5" height="22.75" rx="3" fill="rgba(255,255,255,0.4)"/><rect x="530" y="281.75" width="17.5" height="22.75" rx="3" fill="#cbe6f5"/><rect x="553.5" y="281.75" width="17.5" height="22.75" rx="3" fill="rgba(255,255,255,0.4)"/><rect x="577" y="281.75" width="17.5" height="22.75" rx="3" fill="rgba(255,255,255,0.4)"/><rect x="600.5" y="281.75" width="17.5" height="22.75" rx="3" fill="rgba(255,255,255,0.4)"/><rect x="530" y="310.5" width="17.5" height="22.75" rx="3" fill="rgba(255,255,255,0.4)"/><rect x="553.5" y="310.5" width="17.5" height="22.75" rx="3" fill="#cbe6f5"/><rect x="577" y="310.5" width="17.5" height="22.75" rx="3" fill="rgba(255,255,255,0.4)"/><rect x="600.5" y="310.5" width="17.5" height="22.75" rx="3" fill="rgba(255,255,255,0.4)"/><rect x="530" y="339.25" width="17.5" height="22.75" rx="3" fill="rgba(255,255,255,0.4)"/><rect x="553.5" y="339.25" width="17.5" height="22.75" rx="3" fill="rgba(255,255,255,0.4)"/><rect x="577" y="339.25" width="17.5" height="22.75" rx="3" fill="#cbe6f5"/><rect x="600.5" y="339.25" width="17.5" height="22.75" rx="3" fill="rgba(255,255,255,0.4)"/></g>
    <rect x="518" y="112" width="112" height="12" rx="5" fill="#ffffff" opacity="0.6"/>
  </g><g>
    <rect x="640" y="180" width="76" height="200" rx="8" fill="url(#t1)"/>
    <g><rect x="646" y="198" width="17.333333333333332" height="22.333333333333332" rx="3" fill="#cbe6f5"/><rect x="669.3333333333334" y="198" width="17.333333333333332" height="22.333333333333332" rx="3" fill="rgba(255,255,255,0.4)"/><rect x="692.6666666666666" y="198" width="17.333333333333332" height="22.333333333333332" rx="3" fill="rgba(255,255,255,0.4)"/><rect x="646" y="226.33333333333334" width="17.333333333333332" height="22.333333333333332" rx="3" fill="rgba(255,255,255,0.4)"/><rect x="669.3333333333334" y="226.33333333333334" width="17.333333333333332" height="22.333333333333332" rx="3" fill="rgba(255,255,255,0.4)"/><rect x="692.6666666666666" y="226.33333333333334" width="17.333333333333332" height="22.333333333333332" rx="3" fill="#cbe6f5"/><rect x="646" y="254.66666666666666" width="17.333333333333332" height="22.333333333333332" rx="3" fill="rgba(255,255,255,0.4)"/><rect x="669.3333333333334" y="254.66666666666666" width="17.333333333333332" height="22.333333333333332" rx="3" fill="rgba(255,255,255,0.4)"/><rect x="692.6666666666666" y="254.66666666666666" width="17.333333333333332" height="22.333333333333332" rx="3" fill="rgba(255,255,255,0.4)"/><rect x="646" y="283" width="17.333333333333332" height="22.333333333333332" rx="3" fill="rgba(255,255,255,0.4)"/><rect x="669.3333333333334" y="283" width="17.333333333333332" height="22.333333333333332" rx="3" fill="#cbe6f5"/><rect x="692.6666666666666" y="283" width="17.333333333333332" height="22.333333333333332" rx="3" fill="rgba(255,255,255,0.4)"/><rect x="646" y="311.3333333333333" width="17.333333333333332" height="22.333333333333332" rx="3" fill="rgba(255,255,255,0.4)"/><rect x="669.3333333333334" y="311.3333333333333" width="17.333333333333332" height="22.333333333333332" rx="3" fill="rgba(255,255,255,0.4)"/><rect x="692.6666666666666" y="311.3333333333333" width="17.333333333333332" height="22.333333333333332" rx="3" fill="rgba(255,255,255,0.4)"/><rect x="646" y="339.66666666666663" width="17.333333333333332" height="22.333333333333332" rx="3" fill="#cbe6f5"/><rect x="669.3333333333334" y="339.66666666666663" width="17.333333333333332" height="22.333333333333332" rx="3" fill="rgba(255,255,255,0.4)"/><rect x="692.6666666666666" y="339.66666666666663" width="17.333333333333332" height="22.333333333333332" rx="3" fill="rgba(255,255,255,0.4)"/></g>
    <rect x="634" y="172" width="88" height="12" rx="5" fill="#ffffff" opacity="0.6"/>
  </g>
    <rect x="0" y="380" width="800" height="26" fill="#efe3cd"/>
    <rect x="0" y="404" width="800" height="86" fill="url(#sea)"/>
    <g opacity="0.5" fill="#ffffff">
      <path d="M30 430 q 22 -9 44 0 q -22 9 -44 0"/><path d="M142 450 q 22 -9 44 0 q -22 9 -44 0"/><path d="M254 470 q 22 -9 44 0 q -22 9 -44 0"/><path d="M366 430 q 22 -9 44 0 q -22 9 -44 0"/><path d="M478 450 q 22 -9 44 0 q -22 9 -44 0"/><path d="M590 470 q 22 -9 44 0 q -22 9 -44 0"/><path d="M702 430 q 22 -9 44 0 q -22 9 -44 0"/>
    </g>
    <path d="M0 486 q 200 18 400 4 t 400 6 L800 600 L0 600 Z" fill="url(#sand)"/>
    <path d="M0 482 q 200 20 400 6 t 400 6 L800 500 L0 500 Z" fill="#ffffff" opacity="0.6"/>
    <g>
    <path d="M90 560 Q85.2 466.5 74 390" stroke="#8a6142" stroke-width="12.75" fill="none" stroke-linecap="round"/>
    <line x1="79.4" y1="538.8" x2="96.6" y2="538.8" stroke="#7a5a3f" stroke-width="3"/><line x1="77.8" y1="517.5" x2="94.3" y2="517.5" stroke="#7a5a3f" stroke-width="3"/><line x1="76.1" y1="496.3" x2="91.9" y2="496.3" stroke="#7a5a3f" stroke-width="3"/><line x1="74.5" y1="475.0" x2="89.5" y2="475.0" stroke="#7a5a3f" stroke-width="3"/><line x1="72.9" y1="453.8" x2="87.1" y2="453.8" stroke="#7a5a3f" stroke-width="3"/><line x1="71.3" y1="432.5" x2="84.8" y2="432.5" stroke="#7a5a3f" stroke-width="3"/><line x1="69.6" y1="411.3" x2="82.4" y2="411.3" stroke="#7a5a3f" stroke-width="3"/>
    <path d="M74 390 Q27.1 358.6 -8.1 377.3 Q20.2 374.6 74 390 Z" fill="#3f9c6b"/><path d="M74 390 Q35.2 337.2 6.2 358.4 Q29.5 353.2 74 390 Z" fill="#3f9c6b"/><path d="M74 390 Q53.6 319.8 38.3 343.1 Q50.6 335.8 74 390 Z" fill="#3f9c6b"/><path d="M74 390 Q94.4 319.8 109.7 343.1 Q97.4 335.8 74 390 Z" fill="#3f9c6b"/><path d="M74 390 Q112.8 337.2 141.8 358.4 Q118.5 353.2 74 390 Z" fill="#3f9c6b"/><path d="M74 390 Q120.9 358.6 156.1 377.3 Q127.8 374.6 74 390 Z" fill="#3f9c6b"/><path d="M74 390 Q74.0 312.3 74.0 336.4 Q74.0 328.3 74 390 Z" fill="#3f9c6b"/>
    <circle cx="74" cy="390" r="8.5" fill="#6b4a33"/>
  </g><g>
    <path d="M700 556 Q704.2 473.5 714 406" stroke="#8a6142" stroke-width="11.25" fill="none" stroke-linecap="round"/>
    <line x1="693.1" y1="537.3" x2="710.4" y2="537.3" stroke="#7a5a3f" stroke-width="3"/><line x1="695.3" y1="518.5" x2="711.8" y2="518.5" stroke="#7a5a3f" stroke-width="3"/><line x1="697.4" y1="499.8" x2="713.1" y2="499.8" stroke="#7a5a3f" stroke-width="3"/><line x1="699.5" y1="481.0" x2="714.5" y2="481.0" stroke="#7a5a3f" stroke-width="3"/><line x1="701.6" y1="462.3" x2="715.9" y2="462.3" stroke="#7a5a3f" stroke-width="3"/><line x1="703.8" y1="443.5" x2="717.3" y2="443.5" stroke="#7a5a3f" stroke-width="3"/><line x1="705.9" y1="424.8" x2="718.6" y2="424.8" stroke="#7a5a3f" stroke-width="3"/>
    <path d="M714 406 Q672.6 378.3 641.5 394.8 Q665.7 394.3 714 406 Z" fill="#3f9c6b"/><path d="M714 406 Q679.8 359.4 654.1 378.1 Q674.1 375.4 714 406 Z" fill="#3f9c6b"/><path d="M714 406 Q696.0 344.1 682.5 364.6 Q693.0 360.1 714 406 Z" fill="#3f9c6b"/><path d="M714 406 Q732.0 344.1 745.5 364.6 Q735.0 360.1 714 406 Z" fill="#3f9c6b"/><path d="M714 406 Q748.2 359.4 773.9 378.1 Q753.9 375.4 714 406 Z" fill="#3f9c6b"/><path d="M714 406 Q755.4 378.3 786.5 394.8 Q762.3 394.3 714 406 Z" fill="#3f9c6b"/><path d="M714 406 Q714.0 337.4 714.0 358.8 Q714.0 353.4 714 406 Z" fill="#3f9c6b"/>
    <circle cx="714" cy="406" r="7.5" fill="#6b4a33"/>
  </g>
    <g transform="translate(280 556) scale(0.95 0.95)">
    <path d="M0 0 L70 0 L70 -8 L0 -8 Z" fill="#ffffff"/>
    <path d="M0 -8 L-4 -34 L18 -34 L14 -8 Z" fill="#ffffff"/>
    <rect x="4" y="0" width="6" height="14" fill="#c9bfb2"/>
    <rect x="58" y="0" width="6" height="14" fill="#c9bfb2"/>
  </g><g transform="translate(380 560) scale(0.95 0.95)">
    <path d="M0 0 L70 0 L70 -8 L0 -8 Z" fill="#ffffff"/>
    <path d="M0 -8 L-4 -34 L18 -34 L14 -8 Z" fill="#ffffff"/>
    <rect x="4" y="0" width="6" height="14" fill="#c9bfb2"/>
    <rect x="58" y="0" width="6" height="14" fill="#c9bfb2"/>
  </g>
    <g transform="translate(250 548) scale(0.9)">
    <rect x="-3" y="-70" width="6" height="70" fill="#c9bfb2"/>
    <path d="M-56 -70 Q0 -110 56 -70 Z" fill="#e8a25c"/>
    <path d="M-18 -70 Q0 -94 18 -70 Z" fill="#ffffff" opacity="0.65"/>
  </g>
    <g opacity="0.2"><ellipse cx="330" cy="572" rx="110" ry="12" fill="#1d2733"/></g>
</svg>
